<svg width="44" height="44" viewBox="0 0 44 44" fill="none" xmlns="http://www.w3.org/2000/svg">
<rect width="43.3198" height="43.3325" rx="8" fill="#6F6FC8"/>
<path d="M12.395 30.9073L19.1198 24.1894M27.588 21.2019L25.575 27.2348C25.5429 27.3315 25.4879 27.4191 25.4147 27.49C25.3415 27.5609 25.2522 27.6132 25.1545 27.6423L12.8145 31.3063C12.7033 31.3393 12.5852 31.3412 12.4731 31.3118C12.3609 31.2824 12.2589 31.2228 12.1783 31.1396C12.0977 31.0563 12.0415 30.9525 12.0158 30.8395C11.9901 30.7266 11.9959 30.6087 12.0326 30.4988L16.0395 18.4922C16.0682 18.406 16.1152 18.3269 16.1772 18.2604C16.2392 18.194 16.3147 18.1416 16.3988 18.1069L22.0911 15.7655C22.2069 15.7177 22.3342 15.7053 22.457 15.7297C22.5798 15.7541 22.6926 15.8143 22.7812 15.9027L27.4348 20.5538C27.5181 20.637 27.5765 20.7416 27.6036 20.8561C27.6306 20.9706 27.6252 21.0903 27.588 21.2019Z" stroke="white" stroke-width="2" stroke-linecap="round" stroke-linejoin="round"/>
<path d="M27.7127 20.8303L30.701 17.844C31.0972 17.4481 31.3197 16.9112 31.3197 16.3513C31.3197 15.7915 31.0972 15.2546 30.701 14.8587L28.4608 12.6187C28.2645 12.4225 28.0315 12.2669 27.7751 12.1608C27.5186 12.0546 27.2437 12 26.9661 12C26.6885 12 26.4136 12.0546 26.1572 12.1608C25.9007 12.2669 25.6677 12.4225 25.4714 12.6187L22.4831 15.605M21.3609 21.9493C21.2137 21.8023 21.0389 21.6857 20.8466 21.6062C20.6542 21.5266 20.4481 21.4857 20.2399 21.4858C20.0318 21.4858 19.8257 21.5268 19.6334 21.6064C19.4411 21.6861 19.2663 21.8028 19.1192 21.9498C18.972 22.0969 18.8553 22.2715 18.7757 22.4637C18.6961 22.6558 18.6551 22.8617 18.6552 23.0697C18.6552 23.2777 18.6963 23.4836 18.776 23.6757C18.8557 23.8678 18.9725 24.0423 19.1197 24.1893C19.417 24.4862 19.8203 24.653 20.2407 24.6529C20.6611 24.6528 21.0642 24.4859 21.3615 24.1888C21.6587 23.8918 21.8256 23.4889 21.8255 23.0689C21.8254 22.649 21.6583 22.2462 21.3609 21.9493Z" stroke="white" stroke-width="2" stroke-linecap="round" stroke-linejoin="round"/>
</svg>
